<mxfile host="app.diagrams.net" agent="Mozilla/5.0 (Windows NT 10.0; Win64; x64) AppleWebKit/537.36 (KHTML, like Gecko) Chrome/129.0.0.0 Safari/537.36 Edg/129.0.0.0" version="24.7.16">
  <diagram name="Page-1" id="aWxZbnLIh_yAqJ4WnIZY">
    <mxGraphModel dx="2216" dy="788" grid="1" gridSize="10" guides="1" tooltips="1" connect="1" arrows="1" fold="1" page="1" pageScale="1" pageWidth="850" pageHeight="1100" math="0" shadow="0">
      <root>
        <mxCell id="0" />
        <mxCell id="1" parent="0" />
        <mxCell id="XpPoOQ964OAE_ViXSChm-73" value="Application DR Infrastructure Architecture" style="swimlane;whiteSpace=wrap;html=1;fillColor=#ffe6cc;strokeColor=#d79b00;" parent="1" vertex="1">
          <mxGeometry x="-290" y="700" width="1000" height="640" as="geometry">
            <mxRectangle x="-280" y="550" width="260" height="30" as="alternateBounds" />
          </mxGeometry>
        </mxCell>
        <mxCell id="XpPoOQ964OAE_ViXSChm-74" value="&lt;b&gt;&lt;font style=&quot;font-size: 13px;&quot;&gt;ap-south-1&lt;/font&gt;&lt;/b&gt;" style="rounded=1;whiteSpace=wrap;html=1;fillColor=#eeeeee;strokeColor=#36393d;dashed=1;" parent="XpPoOQ964OAE_ViXSChm-73" vertex="1">
          <mxGeometry x="908" y="2" width="90" height="20" as="geometry" />
        </mxCell>
        <mxCell id="XpPoOQ964OAE_ViXSChm-64" value="1. Services Running in DR Region" style="swimlane;whiteSpace=wrap;html=1;fillColor=#f8cecc;strokeColor=#b85450;" parent="XpPoOQ964OAE_ViXSChm-73" vertex="1">
          <mxGeometry x="45" y="50" width="480" height="550" as="geometry">
            <mxRectangle x="-240" y="570" width="140" height="30" as="alternateBounds" />
          </mxGeometry>
        </mxCell>
        <mxCell id="XpPoOQ964OAE_ViXSChm-39" value="Automaticaly updates with new image during build" style="rounded=1;whiteSpace=wrap;html=1;fillColor=#dae8fc;strokeColor=#6c8ebf;dashed=1;dashPattern=8 8;" parent="XpPoOQ964OAE_ViXSChm-64" vertex="1">
          <mxGeometry x="200" y="50" width="100" height="70" as="geometry" />
        </mxCell>
        <mxCell id="XpPoOQ964OAE_ViXSChm-37" value="AWS ECR" style="sketch=0;points=[[0,0,0],[0.25,0,0],[0.5,0,0],[0.75,0,0],[1,0,0],[0,1,0],[0.25,1,0],[0.5,1,0],[0.75,1,0],[1,1,0],[0,0.25,0],[0,0.5,0],[0,0.75,0],[1,0.25,0],[1,0.5,0],[1,0.75,0]];outlineConnect=0;fontColor=#232F3E;fillColor=#ED7100;strokeColor=#ffffff;dashed=0;verticalLabelPosition=bottom;verticalAlign=top;align=center;html=1;fontSize=12;fontStyle=0;aspect=fixed;shape=mxgraph.aws4.resourceIcon;resIcon=mxgraph.aws4.ecr;" parent="XpPoOQ964OAE_ViXSChm-64" vertex="1">
          <mxGeometry x="350" y="70" width="78" height="78" as="geometry" />
        </mxCell>
        <mxCell id="XpPoOQ964OAE_ViXSChm-51" value="Amazon S3" style="sketch=0;points=[[0,0,0],[0.25,0,0],[0.5,0,0],[0.75,0,0],[1,0,0],[0,1,0],[0.25,1,0],[0.5,1,0],[0.75,1,0],[1,1,0],[0,0.25,0],[0,0.5,0],[0,0.75,0],[1,0.25,0],[1,0.5,0],[1,0.75,0]];outlineConnect=0;fontColor=#232F3E;fillColor=#7AA116;strokeColor=#ffffff;dashed=0;verticalLabelPosition=bottom;verticalAlign=top;align=center;html=1;fontSize=12;fontStyle=0;aspect=fixed;shape=mxgraph.aws4.resourceIcon;resIcon=mxgraph.aws4.s3;" parent="XpPoOQ964OAE_ViXSChm-64" vertex="1">
          <mxGeometry x="350" y="228" width="78" height="78" as="geometry" />
        </mxCell>
        <mxCell id="XpPoOQ964OAE_ViXSChm-53" value="Live Replication S3 - Mongo Backups" style="rounded=1;whiteSpace=wrap;html=1;fillColor=#dae8fc;strokeColor=#6c8ebf;dashed=1;dashPattern=8 8;" parent="XpPoOQ964OAE_ViXSChm-64" vertex="1">
          <mxGeometry x="200" y="200" width="100" height="60" as="geometry" />
        </mxCell>
        <mxCell id="XpPoOQ964OAE_ViXSChm-55" value="New Secret manager with DR Mongo DB Creds" style="rounded=1;whiteSpace=wrap;html=1;fillColor=#dae8fc;strokeColor=#6c8ebf;dashed=1;dashPattern=8 8;" parent="XpPoOQ964OAE_ViXSChm-64" vertex="1">
          <mxGeometry x="200" y="340" width="100" height="60" as="geometry" />
        </mxCell>
        <mxCell id="XpPoOQ964OAE_ViXSChm-54" value="AWS Secret Manager" style="sketch=0;points=[[0,0,0],[0.25,0,0],[0.5,0,0],[0.75,0,0],[1,0,0],[0,1,0],[0.25,1,0],[0.5,1,0],[0.75,1,0],[1,1,0],[0,0.25,0],[0,0.5,0],[0,0.75,0],[1,0.25,0],[1,0.5,0],[1,0.75,0]];outlineConnect=0;fontColor=#232F3E;fillColor=#DD344C;strokeColor=#ffffff;dashed=0;verticalLabelPosition=bottom;verticalAlign=top;align=center;html=1;fontSize=12;fontStyle=0;aspect=fixed;shape=mxgraph.aws4.resourceIcon;resIcon=mxgraph.aws4.secrets_manager;" parent="XpPoOQ964OAE_ViXSChm-64" vertex="1">
          <mxGeometry x="348" y="370" width="80" height="80" as="geometry" />
        </mxCell>
        <mxCell id="XpPoOQ964OAE_ViXSChm-59" value="Backup Mongo DB" style="swimlane;whiteSpace=wrap;html=1;" parent="XpPoOQ964OAE_ViXSChm-64" vertex="1">
          <mxGeometry x="50" y="320" width="140" height="200" as="geometry" />
        </mxCell>
        <mxCell id="XpPoOQ964OAE_ViXSChm-56" value="EC2 Instance" style="outlineConnect=0;dashed=0;verticalLabelPosition=bottom;verticalAlign=top;align=center;html=1;shape=mxgraph.aws3.ec2;fillColor=#F58534;gradientColor=none;" parent="XpPoOQ964OAE_ViXSChm-59" vertex="1">
          <mxGeometry x="31.75" y="43.5" width="76.5" height="93" as="geometry" />
        </mxCell>
        <mxCell id="XpPoOQ964OAE_ViXSChm-62" value="" style="verticalLabelPosition=bottom;verticalAlign=top;html=1;shape=mxgraph.basic.no_symbol;fillColor=#e51400;fontColor=#ffffff;strokeColor=#B20000;" parent="XpPoOQ964OAE_ViXSChm-59" vertex="1">
          <mxGeometry x="6" y="170" width="20" height="20" as="geometry" />
        </mxCell>
        <mxCell id="XpPoOQ964OAE_ViXSChm-63" value="Passive State" style="text;html=1;align=center;verticalAlign=middle;resizable=0;points=[];autosize=1;strokeColor=none;fillColor=none;" parent="XpPoOQ964OAE_ViXSChm-59" vertex="1">
          <mxGeometry x="26" y="165" width="100" height="30" as="geometry" />
        </mxCell>
        <mxCell id="XpPoOQ964OAE_ViXSChm-57" style="edgeStyle=orthogonalEdgeStyle;rounded=0;orthogonalLoop=1;jettySize=auto;html=1;" parent="XpPoOQ964OAE_ViXSChm-64" source="XpPoOQ964OAE_ViXSChm-56" target="XpPoOQ964OAE_ViXSChm-54" edge="1">
          <mxGeometry relative="1" as="geometry" />
        </mxCell>
        <mxCell id="XpPoOQ964OAE_ViXSChm-65" value="2. Services created during DR - Using Terraform" style="swimlane;whiteSpace=wrap;html=1;fillColor=#fff2cc;strokeColor=#d6b656;" parent="XpPoOQ964OAE_ViXSChm-73" vertex="1">
          <mxGeometry x="575" y="50" width="380" height="350" as="geometry">
            <mxRectangle x="575" y="50" width="300" height="30" as="alternateBounds" />
          </mxGeometry>
        </mxCell>
        <mxCell id="XpPoOQ964OAE_ViXSChm-41" value="Task Definition" style="sketch=0;outlineConnect=0;fontColor=#232F3E;gradientColor=none;fillColor=#ED7100;strokeColor=none;dashed=0;verticalLabelPosition=bottom;verticalAlign=top;align=center;html=1;fontSize=12;fontStyle=0;aspect=fixed;pointerEvents=1;shape=mxgraph.aws4.ecs_task;" parent="XpPoOQ964OAE_ViXSChm-65" vertex="1">
          <mxGeometry x="50" y="85" width="37" height="48" as="geometry" />
        </mxCell>
        <mxCell id="XpPoOQ964OAE_ViXSChm-43" value="AWS ECS" style="sketch=0;points=[[0,0,0],[0.25,0,0],[0.5,0,0],[0.75,0,0],[1,0,0],[0,1,0],[0.25,1,0],[0.5,1,0],[0.75,1,0],[1,1,0],[0,0.25,0],[0,0.5,0],[0,0.75,0],[1,0.25,0],[1,0.5,0],[1,0.75,0]];outlineConnect=0;fontColor=#232F3E;fillColor=#ED7100;strokeColor=#ffffff;dashed=0;verticalLabelPosition=bottom;verticalAlign=top;align=center;html=1;fontSize=12;fontStyle=0;aspect=fixed;shape=mxgraph.aws4.resourceIcon;resIcon=mxgraph.aws4.ecs;" parent="XpPoOQ964OAE_ViXSChm-65" vertex="1">
          <mxGeometry x="151" y="70" width="78" height="78" as="geometry" />
        </mxCell>
        <mxCell id="XpPoOQ964OAE_ViXSChm-45" value="AWS Fargate" style="sketch=0;points=[[0,0,0],[0.25,0,0],[0.5,0,0],[0.75,0,0],[1,0,0],[0,1,0],[0.25,1,0],[0.5,1,0],[0.75,1,0],[1,1,0],[0,0.25,0],[0,0.5,0],[0,0.75,0],[1,0.25,0],[1,0.5,0],[1,0.75,0]];outlineConnect=0;fontColor=#232F3E;fillColor=#ED7100;strokeColor=#ffffff;dashed=0;verticalLabelPosition=bottom;verticalAlign=top;align=center;html=1;fontSize=12;fontStyle=0;aspect=fixed;shape=mxgraph.aws4.resourceIcon;resIcon=mxgraph.aws4.fargate;" parent="XpPoOQ964OAE_ViXSChm-65" vertex="1">
          <mxGeometry x="151" y="231" width="78" height="78" as="geometry" />
        </mxCell>
        <mxCell id="XpPoOQ964OAE_ViXSChm-46" value="ALB" style="outlineConnect=0;dashed=0;verticalLabelPosition=bottom;verticalAlign=top;align=center;html=1;shape=mxgraph.aws3.classic_load_balancer;fillColor=#F58534;gradientColor=none;" parent="XpPoOQ964OAE_ViXSChm-65" vertex="1">
          <mxGeometry x="271" y="234" width="69" height="72" as="geometry" />
        </mxCell>
        <mxCell id="XpPoOQ964OAE_ViXSChm-44" style="edgeStyle=orthogonalEdgeStyle;rounded=0;orthogonalLoop=1;jettySize=auto;html=1;entryX=0;entryY=0.5;entryDx=0;entryDy=0;entryPerimeter=0;" parent="XpPoOQ964OAE_ViXSChm-65" source="XpPoOQ964OAE_ViXSChm-41" target="XpPoOQ964OAE_ViXSChm-43" edge="1">
          <mxGeometry relative="1" as="geometry">
            <Array as="points">
              <mxPoint x="90" y="109" />
            </Array>
          </mxGeometry>
        </mxCell>
        <mxCell id="XpPoOQ964OAE_ViXSChm-49" style="edgeStyle=orthogonalEdgeStyle;rounded=0;orthogonalLoop=1;jettySize=auto;html=1;" parent="XpPoOQ964OAE_ViXSChm-65" source="XpPoOQ964OAE_ViXSChm-43" target="XpPoOQ964OAE_ViXSChm-45" edge="1">
          <mxGeometry relative="1" as="geometry" />
        </mxCell>
        <mxCell id="XpPoOQ964OAE_ViXSChm-47" style="edgeStyle=orthogonalEdgeStyle;rounded=0;orthogonalLoop=1;jettySize=auto;html=1;" parent="XpPoOQ964OAE_ViXSChm-65" source="XpPoOQ964OAE_ViXSChm-45" target="XpPoOQ964OAE_ViXSChm-46" edge="1">
          <mxGeometry relative="1" as="geometry" />
        </mxCell>
        <mxCell id="XpPoOQ964OAE_ViXSChm-70" value="3. Post launching of DR ALB - Domain Mapping" style="swimlane;whiteSpace=wrap;html=1;fillColor=#d5e8d4;strokeColor=#82b366;" parent="XpPoOQ964OAE_ViXSChm-73" vertex="1">
          <mxGeometry x="575" y="420" width="380" height="180" as="geometry">
            <mxRectangle x="575" y="420" width="290" height="30" as="alternateBounds" />
          </mxGeometry>
        </mxCell>
        <mxCell id="XpPoOQ964OAE_ViXSChm-66" value="Amazon&amp;nbsp;&lt;div&gt;Certificate Manager&lt;/div&gt;" style="sketch=0;points=[[0,0,0],[0.25,0,0],[0.5,0,0],[0.75,0,0],[1,0,0],[0,1,0],[0.25,1,0],[0.5,1,0],[0.75,1,0],[1,1,0],[0,0.25,0],[0,0.5,0],[0,0.75,0],[1,0.25,0],[1,0.5,0],[1,0.75,0]];outlineConnect=0;fontColor=#232F3E;fillColor=#DD344C;strokeColor=#ffffff;dashed=0;verticalLabelPosition=bottom;verticalAlign=top;align=center;html=1;fontSize=12;fontStyle=0;aspect=fixed;shape=mxgraph.aws4.resourceIcon;resIcon=mxgraph.aws4.certificate_manager_3;" parent="XpPoOQ964OAE_ViXSChm-70" vertex="1">
          <mxGeometry x="76.5" y="51" width="78" height="78" as="geometry" />
        </mxCell>
        <mxCell id="XpPoOQ964OAE_ViXSChm-67" value="AWS Route 53" style="sketch=0;points=[[0,0,0],[0.25,0,0],[0.5,0,0],[0.75,0,0],[1,0,0],[0,1,0],[0.25,1,0],[0.5,1,0],[0.75,1,0],[1,1,0],[0,0.25,0],[0,0.5,0],[0,0.75,0],[1,0.25,0],[1,0.5,0],[1,0.75,0]];outlineConnect=0;fontColor=#232F3E;fillColor=#8C4FFF;strokeColor=#ffffff;dashed=0;verticalLabelPosition=bottom;verticalAlign=top;align=center;html=1;fontSize=12;fontStyle=0;aspect=fixed;shape=mxgraph.aws4.resourceIcon;resIcon=mxgraph.aws4.route_53;" parent="XpPoOQ964OAE_ViXSChm-70" vertex="1">
          <mxGeometry x="225.5" y="51" width="78" height="78" as="geometry" />
        </mxCell>
        <mxCell id="XpPoOQ964OAE_ViXSChm-50" style="edgeStyle=orthogonalEdgeStyle;rounded=0;orthogonalLoop=1;jettySize=auto;html=1;" parent="XpPoOQ964OAE_ViXSChm-73" source="XpPoOQ964OAE_ViXSChm-37" target="XpPoOQ964OAE_ViXSChm-41" edge="1">
          <mxGeometry relative="1" as="geometry" />
        </mxCell>
        <mxCell id="U-I9TVue0RPX7_Oj1zj1-1" style="edgeStyle=orthogonalEdgeStyle;rounded=0;orthogonalLoop=1;jettySize=auto;html=1;" parent="XpPoOQ964OAE_ViXSChm-73" source="XpPoOQ964OAE_ViXSChm-54" target="XpPoOQ964OAE_ViXSChm-41" edge="1">
          <mxGeometry relative="1" as="geometry">
            <Array as="points">
              <mxPoint x="433" y="390" />
              <mxPoint x="643" y="390" />
            </Array>
          </mxGeometry>
        </mxCell>
        <mxCell id="XpPoOQ964OAE_ViXSChm-15" value="USers" style="sketch=0;outlineConnect=0;fontColor=#232F3E;gradientColor=none;fillColor=#232F3D;strokeColor=none;dashed=0;verticalLabelPosition=bottom;verticalAlign=top;align=center;html=1;fontSize=12;fontStyle=0;aspect=fixed;pointerEvents=1;shape=mxgraph.aws4.users;" parent="1" vertex="1">
          <mxGeometry x="640" y="294" width="50" height="50" as="geometry" />
        </mxCell>
        <mxCell id="XpPoOQ964OAE_ViXSChm-16" style="edgeStyle=orthogonalEdgeStyle;rounded=0;orthogonalLoop=1;jettySize=auto;html=1;entryX=1;entryY=0.5;entryDx=0;entryDy=0;entryPerimeter=0;" parent="1" source="XpPoOQ964OAE_ViXSChm-15" target="XpPoOQ964OAE_ViXSChm-5" edge="1">
          <mxGeometry relative="1" as="geometry" />
        </mxCell>
        <mxCell id="XpPoOQ964OAE_ViXSChm-17" value="Application Infrastructure" style="swimlane;whiteSpace=wrap;html=1;fillColor=#d5e8d4;strokeColor=#82b366;" parent="1" vertex="1">
          <mxGeometry x="-140" y="60" width="720" height="440" as="geometry">
            <mxRectangle x="-140" y="60" width="210" height="30" as="alternateBounds" />
          </mxGeometry>
        </mxCell>
        <mxCell id="XpPoOQ964OAE_ViXSChm-6" value="AWS Secret Mabager" style="sketch=0;points=[[0,0,0],[0.25,0,0],[0.5,0,0],[0.75,0,0],[1,0,0],[0,1,0],[0.25,1,0],[0.5,1,0],[0.75,1,0],[1,1,0],[0,0.25,0],[0,0.5,0],[0,0.75,0],[1,0.25,0],[1,0.5,0],[1,0.75,0]];outlineConnect=0;fontColor=#232F3E;fillColor=#DD344C;strokeColor=#ffffff;dashed=0;verticalLabelPosition=bottom;verticalAlign=top;align=center;html=1;fontSize=12;fontStyle=0;aspect=fixed;shape=mxgraph.aws4.resourceIcon;resIcon=mxgraph.aws4.secrets_manager;" parent="XpPoOQ964OAE_ViXSChm-17" vertex="1">
          <mxGeometry x="40" y="210" width="80" height="80" as="geometry" />
        </mxCell>
        <mxCell id="XpPoOQ964OAE_ViXSChm-11" value="Amazon S3" style="sketch=0;points=[[0,0,0],[0.25,0,0],[0.5,0,0],[0.75,0,0],[1,0,0],[0,1,0],[0.25,1,0],[0.5,1,0],[0.75,1,0],[1,1,0],[0,0.25,0],[0,0.5,0],[0,0.75,0],[1,0.25,0],[1,0.5,0],[1,0.75,0]];outlineConnect=0;fontColor=#232F3E;fillColor=#7AA116;strokeColor=#ffffff;dashed=0;verticalLabelPosition=bottom;verticalAlign=top;align=center;html=1;fontSize=12;fontStyle=0;aspect=fixed;shape=mxgraph.aws4.resourceIcon;resIcon=mxgraph.aws4.s3;" parent="XpPoOQ964OAE_ViXSChm-17" vertex="1">
          <mxGeometry x="41" y="340" width="78" height="78" as="geometry" />
        </mxCell>
        <mxCell id="XpPoOQ964OAE_ViXSChm-12" value="&lt;font style=&quot;font-size: 19px;&quot;&gt;&lt;b&gt;CICD&lt;/b&gt;&lt;/font&gt;" style="shape=step;perimeter=stepPerimeter;whiteSpace=wrap;html=1;fixedSize=1;fillColor=#b0e3e6;strokeColor=#0e8088;" parent="XpPoOQ964OAE_ViXSChm-17" vertex="1">
          <mxGeometry x="20" y="59" width="120" height="80" as="geometry" />
        </mxCell>
        <mxCell id="XpPoOQ964OAE_ViXSChm-13" style="edgeStyle=orthogonalEdgeStyle;rounded=0;orthogonalLoop=1;jettySize=auto;html=1;" parent="XpPoOQ964OAE_ViXSChm-17" source="XpPoOQ964OAE_ViXSChm-12" target="XpPoOQ964OAE_ViXSChm-1" edge="1">
          <mxGeometry relative="1" as="geometry" />
        </mxCell>
        <mxCell id="XpPoOQ964OAE_ViXSChm-1" value="AWS ECR" style="sketch=0;points=[[0,0,0],[0.25,0,0],[0.5,0,0],[0.75,0,0],[1,0,0],[0,1,0],[0.25,1,0],[0.5,1,0],[0.75,1,0],[1,1,0],[0,0.25,0],[0,0.5,0],[0,0.75,0],[1,0.25,0],[1,0.5,0],[1,0.75,0]];outlineConnect=0;fontColor=#232F3E;fillColor=#ED7100;strokeColor=#ffffff;dashed=0;verticalLabelPosition=bottom;verticalAlign=top;align=center;html=1;fontSize=12;fontStyle=0;aspect=fixed;shape=mxgraph.aws4.resourceIcon;resIcon=mxgraph.aws4.ecr;" parent="XpPoOQ964OAE_ViXSChm-17" vertex="1">
          <mxGeometry x="240" y="60" width="78" height="78" as="geometry" />
        </mxCell>
        <mxCell id="XpPoOQ964OAE_ViXSChm-3" value="Task Definition" style="sketch=0;outlineConnect=0;fontColor=#232F3E;gradientColor=none;fillColor=#ED7100;strokeColor=none;dashed=0;verticalLabelPosition=bottom;verticalAlign=top;align=center;html=1;fontSize=12;fontStyle=0;aspect=fixed;pointerEvents=1;shape=mxgraph.aws4.ecs_task;" parent="XpPoOQ964OAE_ViXSChm-17" vertex="1">
          <mxGeometry x="379" y="74" width="37" height="48" as="geometry" />
        </mxCell>
        <mxCell id="XpPoOQ964OAE_ViXSChm-7" style="edgeStyle=orthogonalEdgeStyle;rounded=0;orthogonalLoop=1;jettySize=auto;html=1;" parent="XpPoOQ964OAE_ViXSChm-17" source="XpPoOQ964OAE_ViXSChm-1" target="XpPoOQ964OAE_ViXSChm-3" edge="1">
          <mxGeometry relative="1" as="geometry">
            <Array as="points">
              <mxPoint x="340" y="100" />
              <mxPoint x="340" y="100" />
            </Array>
          </mxGeometry>
        </mxCell>
        <mxCell id="XpPoOQ964OAE_ViXSChm-2" value="AWS ECS" style="sketch=0;points=[[0,0,0],[0.25,0,0],[0.5,0,0],[0.75,0,0],[1,0,0],[0,1,0],[0.25,1,0],[0.5,1,0],[0.75,1,0],[1,1,0],[0,0.25,0],[0,0.5,0],[0,0.75,0],[1,0.25,0],[1,0.5,0],[1,0.75,0]];outlineConnect=0;fontColor=#232F3E;fillColor=#ED7100;strokeColor=#ffffff;dashed=0;verticalLabelPosition=bottom;verticalAlign=top;align=center;html=1;fontSize=12;fontStyle=0;aspect=fixed;shape=mxgraph.aws4.resourceIcon;resIcon=mxgraph.aws4.ecs;" parent="XpPoOQ964OAE_ViXSChm-17" vertex="1">
          <mxGeometry x="480" y="59" width="78" height="78" as="geometry" />
        </mxCell>
        <mxCell id="XpPoOQ964OAE_ViXSChm-8" style="edgeStyle=orthogonalEdgeStyle;rounded=0;orthogonalLoop=1;jettySize=auto;html=1;entryX=0;entryY=0.5;entryDx=0;entryDy=0;entryPerimeter=0;" parent="XpPoOQ964OAE_ViXSChm-17" source="XpPoOQ964OAE_ViXSChm-3" target="XpPoOQ964OAE_ViXSChm-2" edge="1">
          <mxGeometry relative="1" as="geometry">
            <Array as="points">
              <mxPoint x="419" y="98" />
            </Array>
          </mxGeometry>
        </mxCell>
        <mxCell id="XpPoOQ964OAE_ViXSChm-14" style="edgeStyle=orthogonalEdgeStyle;rounded=0;orthogonalLoop=1;jettySize=auto;html=1;" parent="XpPoOQ964OAE_ViXSChm-17" source="XpPoOQ964OAE_ViXSChm-2" target="XpPoOQ964OAE_ViXSChm-4" edge="1">
          <mxGeometry relative="1" as="geometry" />
        </mxCell>
        <mxCell id="XpPoOQ964OAE_ViXSChm-4" value="AWS Fargate" style="sketch=0;points=[[0,0,0],[0.25,0,0],[0.5,0,0],[0.75,0,0],[1,0,0],[0,1,0],[0.25,1,0],[0.5,1,0],[0.75,1,0],[1,1,0],[0,0.25,0],[0,0.5,0],[0,0.75,0],[1,0.25,0],[1,0.5,0],[1,0.75,0]];outlineConnect=0;fontColor=#232F3E;fillColor=#ED7100;strokeColor=#ffffff;dashed=0;verticalLabelPosition=bottom;verticalAlign=top;align=center;html=1;fontSize=12;fontStyle=0;aspect=fixed;shape=mxgraph.aws4.resourceIcon;resIcon=mxgraph.aws4.fargate;" parent="XpPoOQ964OAE_ViXSChm-17" vertex="1">
          <mxGeometry x="480" y="220" width="78" height="78" as="geometry" />
        </mxCell>
        <mxCell id="XpPoOQ964OAE_ViXSChm-5" value="ALB" style="outlineConnect=0;dashed=0;verticalLabelPosition=bottom;verticalAlign=top;align=center;html=1;shape=mxgraph.aws3.classic_load_balancer;fillColor=#F58534;gradientColor=none;" parent="XpPoOQ964OAE_ViXSChm-17" vertex="1">
          <mxGeometry x="600" y="223" width="69" height="72" as="geometry" />
        </mxCell>
        <mxCell id="XpPoOQ964OAE_ViXSChm-10" style="edgeStyle=orthogonalEdgeStyle;rounded=0;orthogonalLoop=1;jettySize=auto;html=1;" parent="XpPoOQ964OAE_ViXSChm-17" source="XpPoOQ964OAE_ViXSChm-4" target="XpPoOQ964OAE_ViXSChm-5" edge="1">
          <mxGeometry relative="1" as="geometry" />
        </mxCell>
        <mxCell id="XpPoOQ964OAE_ViXSChm-18" value="&lt;b&gt;&lt;font style=&quot;font-size: 13px;&quot;&gt;us-east-1&lt;/font&gt;&lt;/b&gt;" style="rounded=1;whiteSpace=wrap;html=1;fillColor=#eeeeee;strokeColor=#36393d;dashed=1;" parent="XpPoOQ964OAE_ViXSChm-17" vertex="1">
          <mxGeometry x="627" y="2" width="90" height="20" as="geometry" />
        </mxCell>
        <mxCell id="XpPoOQ964OAE_ViXSChm-80" value="" style="group" parent="XpPoOQ964OAE_ViXSChm-17" vertex="1" connectable="0">
          <mxGeometry x="459" y="329" width="231" height="100" as="geometry" />
        </mxCell>
        <mxCell id="XpPoOQ964OAE_ViXSChm-79" value="" style="rounded=0;whiteSpace=wrap;html=1;fillColor=none;dashed=1;" parent="XpPoOQ964OAE_ViXSChm-80" vertex="1">
          <mxGeometry width="231" height="100" as="geometry" />
        </mxCell>
        <mxCell id="XpPoOQ964OAE_ViXSChm-75" value="AWS&lt;div&gt;Certificate Manager&lt;/div&gt;" style="sketch=0;points=[[0,0,0],[0.25,0,0],[0.5,0,0],[0.75,0,0],[1,0,0],[0,1,0],[0.25,1,0],[0.5,1,0],[0.75,1,0],[1,1,0],[0,0.25,0],[0,0.5,0],[0,0.75,0],[1,0.25,0],[1,0.5,0],[1,0.75,0]];outlineConnect=0;fontColor=#232F3E;fillColor=#DD344C;strokeColor=#ffffff;dashed=0;verticalLabelPosition=bottom;verticalAlign=top;align=center;html=1;fontSize=12;fontStyle=0;aspect=fixed;shape=mxgraph.aws4.resourceIcon;resIcon=mxgraph.aws4.certificate_manager_3;" parent="XpPoOQ964OAE_ViXSChm-80" vertex="1">
          <mxGeometry x="51" y="11" width="50" height="50" as="geometry" />
        </mxCell>
        <mxCell id="XpPoOQ964OAE_ViXSChm-76" value="AWS&lt;div&gt;&lt;span style=&quot;background-color: initial;&quot;&gt;Route 53&lt;/span&gt;&lt;/div&gt;" style="sketch=0;points=[[0,0,0],[0.25,0,0],[0.5,0,0],[0.75,0,0],[1,0,0],[0,1,0],[0.25,1,0],[0.5,1,0],[0.75,1,0],[1,1,0],[0,0.25,0],[0,0.5,0],[0,0.75,0],[1,0.25,0],[1,0.5,0],[1,0.75,0]];outlineConnect=0;fontColor=#232F3E;fillColor=#8C4FFF;strokeColor=#ffffff;dashed=0;verticalLabelPosition=bottom;verticalAlign=top;align=center;html=1;fontSize=12;fontStyle=0;aspect=fixed;shape=mxgraph.aws4.resourceIcon;resIcon=mxgraph.aws4.route_53;" parent="XpPoOQ964OAE_ViXSChm-80" vertex="1">
          <mxGeometry x="149" y="13" width="48" height="48" as="geometry" />
        </mxCell>
        <mxCell id="XpPoOQ964OAE_ViXSChm-38" style="edgeStyle=orthogonalEdgeStyle;rounded=0;orthogonalLoop=1;jettySize=auto;html=1;entryX=0;entryY=0.5;entryDx=0;entryDy=0;entryPerimeter=0;" parent="1" source="XpPoOQ964OAE_ViXSChm-12" target="XpPoOQ964OAE_ViXSChm-37" edge="1">
          <mxGeometry relative="1" as="geometry">
            <Array as="points">
              <mxPoint x="80" y="159" />
              <mxPoint x="80" y="859" />
            </Array>
          </mxGeometry>
        </mxCell>
        <mxCell id="XpPoOQ964OAE_ViXSChm-52" style="edgeStyle=orthogonalEdgeStyle;rounded=0;orthogonalLoop=1;jettySize=auto;html=1;entryX=0;entryY=0.5;entryDx=0;entryDy=0;entryPerimeter=0;" parent="1" source="XpPoOQ964OAE_ViXSChm-11" target="XpPoOQ964OAE_ViXSChm-51" edge="1">
          <mxGeometry relative="1" as="geometry">
            <Array as="points">
              <mxPoint x="-60" y="1017" />
            </Array>
          </mxGeometry>
        </mxCell>
        <mxCell id="XpPoOQ964OAE_ViXSChm-69" style="edgeStyle=orthogonalEdgeStyle;rounded=0;orthogonalLoop=1;jettySize=auto;html=1;" parent="1" source="XpPoOQ964OAE_ViXSChm-68" edge="1">
          <mxGeometry relative="1" as="geometry">
            <mxPoint x="620" y="1020" as="targetPoint" />
          </mxGeometry>
        </mxCell>
        <mxCell id="XpPoOQ964OAE_ViXSChm-68" value="USers" style="sketch=0;outlineConnect=0;fontColor=#232F3E;gradientColor=none;fillColor=#232F3D;strokeColor=none;dashed=0;verticalLabelPosition=bottom;verticalAlign=top;align=center;html=1;fontSize=12;fontStyle=0;aspect=fixed;pointerEvents=1;shape=mxgraph.aws4.users;" parent="1" vertex="1">
          <mxGeometry x="740" y="995" width="50" height="50" as="geometry" />
        </mxCell>
      </root>
    </mxGraphModel>
  </diagram>
</mxfile>
